<svg width="100%" height="100%" viewBox="0 0 16 16" version="1.1" xmlns="http://www.w3.org/2000/svg" xmlns:xlink="http://www.w3.org/1999/xlink" xml:space="preserve" xmlns:serif="http://www.serif.com/" style="fill-rule:evenodd;clip-rule:evenodd;stroke-linejoin:round;stroke-miterlimit:2;">
    <rect x="1" y="1" width="14" height="14" style="fill:white;"/>
    <path d="M14,2L14,14L2,14L2,2L14,2M15,1L1,1L1,15L15,15L15,1Z" style="fill:rgb(67,76,94);fill-rule:nonzero;"/>
    <g>
        <g transform="matrix(0.897416,0,0,1.009919,-0.195647,0.306434)">
            <path d="M7.787,9.577L5.236,9.577L4.757,11L3.244,11L5.715,4.076L7.35,4.076L9.802,11L8.233,11L7.787,9.577ZM7.383,8.383L6.519,5.659L5.626,8.383L7.383,8.383Z" style="fill:rgb(102,102,102);fill-rule:nonzero;"/>
            <path d="M10.765,6.434C11.119,5.983 11.727,5.757 12.588,5.757C13.148,5.757 13.646,5.869 14.082,6.091C14.517,6.313 14.735,6.733 14.735,7.35L14.735,9.699C14.735,9.862 14.738,10.059 14.744,10.291C14.753,10.466 14.78,10.585 14.824,10.648C14.868,10.71 14.934,10.762 15.021,10.803L15.021,11L13.565,11C13.524,10.897 13.496,10.8 13.48,10.709C13.465,10.618 13.452,10.515 13.443,10.399C13.258,10.599 13.045,10.77 12.804,10.911C12.516,11.077 12.19,11.16 11.827,11.16C11.363,11.16 10.98,11.027 10.678,10.763C10.376,10.498 10.225,10.123 10.225,9.638C10.225,9.008 10.468,8.553 10.953,8.271C11.219,8.117 11.611,8.008 12.128,7.942L12.583,7.885C12.831,7.854 13.008,7.815 13.114,7.768C13.305,7.687 13.401,7.56 13.401,7.388C13.401,7.178 13.328,7.033 13.182,6.953C13.036,6.873 12.823,6.833 12.541,6.833C12.225,6.833 12.001,6.911 11.869,7.068C11.775,7.184 11.713,7.341 11.681,7.538L10.389,7.538C10.418,7.09 10.543,6.722 10.765,6.434ZM11.761,10.032C11.886,10.136 12.04,10.187 12.221,10.187C12.51,10.187 12.775,10.103 13.018,9.934C13.26,9.765 13.386,9.456 13.396,9.008L13.396,8.51C13.311,8.563 13.226,8.607 13.14,8.639C13.054,8.672 12.935,8.703 12.785,8.731L12.485,8.787C12.203,8.838 12.001,8.899 11.879,8.971C11.672,9.093 11.568,9.282 11.568,9.539C11.568,9.768 11.633,9.932 11.761,10.032Z" style="fill:rgb(102,102,102);fill-rule:nonzero;"/>
        </g>
    </g>
</svg>
