<?xml version="1.0" encoding="UTF-8" standalone="no"?>
<!DOCTYPE svg PUBLIC "-//W3C//DTD SVG 1.1//EN" "http://www.w3.org/Graphics/SVG/1.1/DTD/svg11.dtd">
<svg width="100%" height="100%" viewBox="0 0 16 16" version="1.1" xmlns="http://www.w3.org/2000/svg" xmlns:xlink="http://www.w3.org/1999/xlink" xml:space="preserve" xmlns:serif="http://www.serif.com/" style="fill-rule:evenodd;clip-rule:evenodd;stroke-linejoin:round;stroke-miterlimit:2;">
    <rect x="1" y="1" width="14" height="14" style="fill:white;"/>
    <path d="M14,2L14,14L2,14L2,2L14,2M15,1L1,1L1,15L15,15L15,1Z" style="fill:rgb(67,76,94);fill-rule:nonzero;"/>
    <g>
        <g transform="matrix(1,0,0,5,0,-17)">
            <rect x="3" y="4" width="2" height="2" style="fill:rgb(191,97,106);"/>
        </g>
        <g transform="matrix(1,0,0,5,4,-16.956698)">
            <rect x="3" y="4" width="2" height="2" style="fill:rgb(163,190,140);"/>
        </g>
        <g transform="matrix(1,0,0,5,6,-16.956698)">
            <rect x="3" y="4" width="2" height="2" style="fill:rgb(235,203,139);"/>
        </g>
        <g transform="matrix(1,0,0,5,7.984024,-16.956698)">
            <rect x="3" y="4" width="2" height="2" style="fill:rgb(180,142,173);"/>
        </g>
        <g transform="matrix(1,0,0,5,2,-17)">
            <rect x="3" y="4" width="2" height="2" style="fill:rgb(129,161,193);"/>
        </g>
    </g>
</svg>
