<svg width="100%" height="100%" viewBox="0 0 24 24" version="1.1" xmlns="http://www.w3.org/2000/svg" xmlns:xlink="http://www.w3.org/1999/xlink" xml:space="preserve" xmlns:serif="http://www.serif.com/" style="fill-rule:evenodd;clip-rule:evenodd;stroke-linejoin:round;stroke-miterlimit:2;">
    <g transform="matrix(1,0,0,1,-30,-31.976857)">
        <g id="Styleguide" transform="matrix(0.24,0,0,0.24,29.52,32.216857)">
            <rect x="2" y="-1" width="100" height="100" style="fill:none;"/>
            <clipPath id="_clip1">
                <rect x="2" y="-1" width="100" height="100"/>
            </clipPath>
            <g clip-path="url(#_clip1)">
                <g transform="matrix(50,0,0,50,2,-1)">
                    <rect x="0" y="0" width="2" height="2" style="fill:rgb(249,199,79);"/>
                </g>
                <g transform="matrix(1.215311,0,0,1.215311,-8.766525,-11.765249)">
                    <path d="M74,46.535C74,46.09 73.824,45.66 73.508,45.344L54.684,26.492C54.367,26.179 53.938,25.999 53.489,25.999C53.043,25.999 52.614,26.175 52.297,26.492L37.777,41.012C34.582,44.207 34.582,49.41 37.777,52.606L38.781,53.609L27.949,63.188C26.738,64.262 26.047,65.773 26.004,67.441C25.957,69.195 26.644,70.906 27.867,72.117C29.055,73.32 30.695,74 32.39,74C32.449,74 32.504,74 32.562,73.996C34.23,73.953 35.742,73.262 36.812,72.051L46.414,61.239L47.398,62.223C48.996,63.821 51.097,64.622 53.195,64.622C55.293,64.622 57.394,63.825 58.992,62.227L63.269,57.958C63.336,57.899 63.398,57.84 63.453,57.774L73.508,47.735C73.82,47.411 74,46.981 74,46.536L74,46.535ZM34.289,69.812C33.844,70.316 33.195,70.605 32.469,70.624C31.641,70.636 30.84,70.328 30.25,69.73C29.668,69.156 29.348,68.355 29.371,67.531C29.391,66.804 29.68,66.16 30.183,65.714L41.171,56L44.023,58.851L34.289,69.812ZM56.601,59.835C54.718,61.718 51.66,61.718 49.777,59.835L42.433,52.492L42.429,52.492L40.16,50.222C38.277,48.339 38.277,45.281 40.16,43.398L41.566,41.992L54.125,42.218L54.91,46.64C55.039,47.359 55.609,47.91 56.332,48.015L60.422,48.601L60.476,55.968L56.601,59.835ZM63.828,52.621L63.789,47.117C63.781,46.281 63.167,45.578 62.339,45.46L58.023,44.843L57.207,40.257C57.066,39.464 56.382,38.882 55.578,38.867L44.883,38.675L53.488,30.07L69.929,46.531L63.828,52.621Z" style="fill-rule:nonzero;"/>
                </g>
                <g transform="matrix(4.166667,0,0,4.166667,-123,-134.236906)">
                    <path d="M40,41L43,38L48,43L46,45L45,43L44,43L43,41L40,41" style="fill-opacity:0.4;"/>
                </g>
            </g>
        </g>
        <g id="Colors">
        </g>
    </g>
</svg>
